<svg height="496pt" viewBox="0 0 496 496" width="496pt" xmlns="http://www.w3.org/2000/svg"><path d="m493.167969 193.894531c-1.792969-1.511719-4.167969-2.175781-6.488281-1.78125l-12.960938 2.160157c-6.398438-27-17.542969-52.371094-33.230469-75.617188l20.503907-16.410156c1.777343-1.421875 2.855468-3.527344 2.984374-5.804688.136719-2.273437-.71875-4.488281-2.328124-6.097656l-56-56c-1.601563-1.609375-3.816407-2.433594-6.105469-2.335938-2.261719.128907-4.382813 1.214844-5.808594 2.992188l-16.398437 20.503906c-23.265626-15.695312-48.632813-26.847656-75.617188-33.238281l2.160156-12.960937c.394532-2.320313-.261718-4.6875-1.789062-6.488282-1.503906-1.785156-3.738282-2.816406-6.089844-2.816406h-96c-2.351562 0-4.585938 1.03125-6.105469 2.832031-1.519531 1.792969-2.175781 4.167969-1.789062 6.488281l2.160156 12.960938c-27.058594 6.398438-52.441406 17.542969-75.648437 33.191406l-16.371094-20.464844c-1.421875-1.777343-3.535156-2.863281-5.804688-2.992187-2.234375-.078125-4.496094.71875-6.105468 2.335937l-56 56c-1.609376 1.609376-2.464844 3.832032-2.328126 6.097657.128907 2.269531 1.207032 4.382812 2.984376 5.808593l20.464843 16.367188c-15.648437 23.207031-26.792969 48.589844-33.191406 75.65625l-12.953125-2.160156c-2.3125-.394532-4.695312.269531-6.488281 1.78125-1.792969 1.511718-2.824219 3.746094-2.824219 6.097656v96c0 2.351562 1.03125 4.585938 2.832031 6.105469 1.792969 1.519531 4.167969 2.183593 6.488281 1.78125l12.960938-2.160157c6.398438 27 17.542969 52.371094 33.230469 75.617188l-20.503907 16.410156c-1.777343 1.421875-2.855468 3.527344-2.984374 5.804688-.136719 2.273437.71875 4.488281 2.328124 6.097656l56 56c1.601563 1.609375 3.847657 2.457031 6.105469 2.335938 2.261719-.128907 4.382813-1.214844 5.808594-2.992188l16.398437-20.503906c23.265626 15.695312 48.632813 26.847656 75.617188 33.238281l-2.160156 12.960937c-.394532 2.320313.261718 4.6875 1.789062 6.488282 1.503906 1.785156 3.738282 2.816406 6.089844 2.816406h96c2.351562 0 4.585938-1.03125 6.105469-2.832031 1.519531-1.792969 2.175781-4.167969 1.789062-6.488281l-2.160156-12.960938c27.058594-6.398438 52.441406-17.542969 75.648437-33.191406l16.371094 20.464844c1.421875 1.777343 3.535156 2.863281 5.804688 2.992187 2.304687.144531 4.496094-.71875 6.105468-2.335937l56-56c1.609376-1.609376 2.464844-3.832032 2.328126-6.097657-.128907-2.269531-1.207032-4.382812-2.984376-5.808593l-20.464843-16.367188c15.648437-23.207031 26.792969-48.589844 33.191406-75.65625l12.953125 2.160156c2.320312.402344 4.695312-.261718 6.488281-1.78125 1.792969-1.511718 2.824219-3.746094 2.824219-6.097656v-96c0-2.351562-1.03125-4.585938-2.832031-6.105469zm-24.3125 90.800781c-4.214844-.6875-8.296875 2.089844-9.160157 6.304688-6.085937 30.128906-18.367187 58.144531-36.496093 83.265625-2.496094 3.453125-1.839844 8.261719 1.488281 10.925781l19.335938 15.472656-16.023438 16.023438-30.34375-30.34375-11.3125 11.3125 30.34375 30.34375-16.023438 16.023438-15.472656-19.335938c-2.671875-3.335938-7.496094-4-10.925781-1.488281-25.128906 18.136719-53.136719 30.417969-83.257813 36.503906-4.222656.847656-7.015624 4.90625-6.304687 9.152344l1.847656 11.144531h-30.550781v-32h-16v32h-30.550781l1.847656-11.144531c.710937-4.246094-2.082031-8.304688-6.304687-9.152344-30.023438-6.0625-58.023438-18.359375-83.222657-36.550781-3.464843-2.488282-8.257812-1.832032-10.929687 1.496094l-15.503906 19.375-16.023438-16.023438 30.34375-30.34375-11.3125-11.3125-30.34375 30.34375-16.023438-16.023438 19.382813-15.503906c3.328125-2.664062 3.984375-7.472656 1.488281-10.929687-18.175781-25.183594-30.480468-53.183594-36.542968-83.222657-.847657-4.222656-4.898438-7-9.160157-6.304687l-11.144531 1.847656v-30.550781h32v-16h-32v-30.550781l11.144531 1.855469c4.261719.71875 8.304688-2.082032 9.160157-6.304688 6.085937-30.128906 18.367187-58.144531 36.496093-83.265625 2.496094-3.453125 1.839844-8.261719-1.488281-10.925781l-19.335938-15.472656 16.023438-16.023438 30.34375 30.34375 11.3125-11.3125-30.34375-30.34375 16.023438-16.023438 15.472656 19.335938c2.664062 3.320312 7.488281 3.984375 10.925781 1.488281 25.128906-18.136719 53.136719-30.417969 83.257813-36.503906 4.222656-.847656 7.015624-4.90625 6.304687-9.152344l-1.847656-11.144531h30.550781v32h16v-32h30.550781l-1.847656 11.144531c-.710937 4.246094 2.082031 8.304688 6.304687 9.152344 30.023438 6.0625 58.023438 18.359375 83.222657 36.550781 3.472656 2.496094 8.265625 1.839844 10.929687-1.496094l15.503906-19.375 16.023438 16.023438-30.34375 30.34375 11.3125 11.3125 30.34375-30.34375 16.023438 16.023438-19.382813 15.503906c-3.328125 2.664062-3.984375 7.472656-1.488281 10.929687 18.175781 25.183594 30.480468 53.183594 36.542968 83.222657.855469 4.222656 4.921876 7.015624 9.160157 6.304687l11.144531-1.847656v30.550781h-32v16h32v30.550781zm0 0"/><path d="m248 64c-101.464844 0-184 82.542969-184 184s82.535156 184 184 184 184-82.542969 184-184-82.535156-184-184-184zm0 352c-92.632812 0-168-75.359375-168-168s75.367188-168 168-168 168 75.359375 168 168-75.367188 168-168 168zm0 0"/><path d="m208 104c-12.664062 0-23.535156 7.457031-28.71875 18.152344-3.519531-1.328125-7.296875-2.152344-11.28125-2.152344-17.648438 0-32 14.351562-32 32 0 3.761719.769531 7.320312 1.96875 10.671875-15.128906 5.710937-25.96875 20.222656-25.96875 37.328125 0 6.585938 1.753906 12.710938 4.585938 18.199219-12.011719 4.617187-20.585938 16.191406-20.585938 29.800781s8.574219 25.183594 20.585938 29.800781c-2.832032 5.488281-4.585938 11.613281-4.585938 18.199219 0 17.105469 10.839844 31.617188 25.96875 37.328125-1.199219 3.351563-1.96875 6.910156-1.96875 10.671875 0 17.648438 14.351562 32 32 32 3.984375 0 7.761719-.824219 11.28125-2.152344 5.183594 10.695313 16.054688 18.152344 28.71875 18.152344 17.648438 0 32-14.351562 32-32v-224c0-17.648438-14.351562-32-32-32zm16 256c0 8.824219-7.175781 16-16 16-7.359375 0-13.519531-5.03125-15.375-11.816406 4.535156-5.519532 7.375-12.496094 7.375-20.183594h-16c0 8.824219-7.175781 16-16 16s-16-7.175781-16-16 7.175781-16 16-16v-16c-7.792969 0-14.847656 2.910156-20.398438 7.550781-11.136718-2.070312-19.601562-11.824219-19.601562-23.550781 0-13.230469 10.769531-24 24-24s24 10.769531 24 24h16c0-22.054688-17.945312-40-40-40-9.039062 0-17.296875 3.128906-24 8.207031v-.207031c-8.824219 0-16-7.175781-16-16s7.175781-16 16-16v-.207031c6.703125 5.078125 14.960938 8.207031 24 8.207031 22.054688 0 40-17.945312 40-40h-16c0 13.230469-10.769531 24-24 24s-24-10.769531-24-24c0-11.726562 8.464844-21.480469 19.601562-23.550781 5.550782 4.640625 12.605469 7.550781 20.398438 7.550781v-16c-8.824219 0-16-7.175781-16-16s7.175781-16 16-16 16 7.175781 16 16h16c0-7.6875-2.839844-14.664062-7.375-20.183594 1.855469-6.785156 8.015625-11.816406 15.375-11.816406 8.824219 0 16 7.175781 16 16zm0 0"/><path d="m360 152c0-17.648438-14.351562-32-32-32-3.984375 0-7.761719.824219-11.28125 2.152344-5.183594-10.695313-16.054688-18.152344-28.71875-18.152344-17.648438 0-32 14.351562-32 32v224c0 17.648438 14.351562 32 32 32 12.664062 0 23.535156-7.457031 28.71875-18.152344 3.519531 1.328125 7.296875 2.152344 11.28125 2.152344 17.648438 0 32-14.351562 32-32 0-3.761719-.769531-7.320312-1.96875-10.671875 15.128906-5.710937 25.96875-20.222656 25.96875-37.328125 0-6.585938-1.753906-12.710938-4.585938-18.199219 12.011719-4.617187 20.585938-16.191406 20.585938-29.800781s-8.574219-25.183594-20.585938-29.800781c2.832032-5.488281 4.585938-11.613281 4.585938-18.199219 0-17.105469-10.839844-31.617188-25.96875-37.328125 1.199219-3.351563 1.96875-6.910156 1.96875-10.671875zm8 48c0 13.230469-10.769531 24-24 24s-24-10.769531-24-24h-16c0 22.054688 17.945312 40 40 40 9.039062 0 17.296875-3.128906 24-8.207031v.207031c8.824219 0 16 7.175781 16 16s-7.175781 16-16 16v.207031c-6.703125-5.078125-14.960938-8.207031-24-8.207031-22.054688 0-40 17.945312-40 40h16c0-13.230469 10.769531-24 24-24s24 10.769531 24 24c0 11.726562-8.464844 21.480469-19.601562 23.550781-5.550782-4.640625-12.605469-7.550781-20.398438-7.550781v16c8.824219 0 16 7.175781 16 16s-7.175781 16-16 16-16-7.175781-16-16h-16c0 7.6875 2.839844 14.664062 7.375 20.183594-1.855469 6.785156-8.015625 11.816406-15.375 11.816406-8.824219 0-16-7.175781-16-16v-224c0-8.824219 7.175781-16 16-16 7.359375 0 13.519531 5.03125 15.375 11.816406-4.535156 5.519532-7.375 12.496094-7.375 20.183594h16c0-8.824219 7.175781-16 16-16s16 7.175781 16 16-7.175781 16-16 16v16c7.792969 0 14.847656-2.910156 20.398438-7.550781 11.136718 2.070312 19.601562 11.824219 19.601562 23.550781zm0 0"/></svg>